<svg xmlns="http://www.w3.org/2000/svg" xml:space="preserve" viewBox="0 0 512 512"><path d="M511.168 28.134a10.67 10.67 0 0 0-9.856-6.592c-80.043 0-153.067 25.237-195.307 67.477-24.384 24.384-34.005 60.48-25.067 94.251a10.65 10.65 0 0 0 8.811 7.829c4.267.597 8.448-1.365 10.645-5.056 19.541-32.469 43.648-63.125 71.637-91.136 4.16-4.16 10.923-4.16 15.083 0s4.16 10.923 0 15.083c-8.192 8.192-15.637 16.32-22.699 24.384-.683.789-1.323 1.579-2.005 2.368-39.979 46.251-62.336 89.301-73.835 117.12-13.867-43.349-39.851-117.781-63.573-149.227 14.571-21.141 12.544-50.347-6.251-69.12C196.331 13.072 159.36.208 117.333.208a10.67 10.67 0 0 0-9.856 6.592 10.64 10.64 0 0 0 2.304 11.627c9.707 9.685 12.821 28.736 15.851 47.125 3.093 18.731 5.995 36.416 16.341 46.763 10.581 10.581 24.491 15.872 38.4 15.872 10.197 0 20.352-2.901 29.227-8.576 24.789 34.709 57.045 133.547 68.16 171.605a10.65 10.65 0 0 0 10.24 7.659h.256c4.821-.107 8.981-3.477 10.112-8.171.107-.405 5.355-21.376 21.205-52.693 16.896 11.861 36.395 18.112 56.021 18.091 25.003 0 49.92-9.557 68.928-28.565 18.261-18.261 23.808-51.989 29.675-87.68 6.336-38.485 12.885-78.293 34.667-100.096a10.64 10.64 0 0 0 2.304-11.627M124.672 259.515c-18.283-17.344-91.392-22.933-113.365-24.235-2.965 0-5.803.875-7.957 2.88A10.74 10.74 0 0 0 0 245.926V459.28c0 5.888 4.779 10.667 10.667 10.667h64c4.608 0 8.704-2.965 10.133-7.36 1.557-4.779 38.315-138.944 43.157-194.411a10.67 10.67 0 0 0-3.285-8.661M448 374.118l-74.667 31.872c-20.672 1.003-63.659-.341-74.667-.192-10.837.149-66.24-17.621-57.557-21.141 1.813-.747 6.443-.896 14.891-.192 48.725 4.053 128 13.867 128-21.333s-85.909-42.667-106.667-42.667S221.781 301.84 192 299.131c-11.84-1.067-28.096-2.688-44.608-3.712-6.741 45.867-26.389 112.341-36.501 144.853L224 491.43c42.325 16 71.104 36.437 160 0 0 0 128-54.336 128-85.333 0-25.622-29.333-43.969-64-31.979"/></svg>