<svg id="Layer_1" enable-background="new 0 0 512 512" height="512" viewBox="0 0 512 512" width="512" xmlns="http://www.w3.org/2000/svg"><path clip-rule="evenodd" d="m256 512c-141.159 0-256-114.841-256-256s114.841-256 256-256 256 114.842 256 256-114.841 256-256 256zm0-281.56c7.313 0 13.241-5.929 13.241-13.242v-113.033c0-7.312-5.929-13.241-13.241-13.241-7.313 0-13.242 5.929-13.242 13.241v113.033c0 7.313 5.929 13.242 13.242 13.242zm67.192-125.244c-6.679-2.98-14.508.017-17.49 6.692-2.983 6.678.013 14.508 6.691 17.49 49.867 22.265 82.089 71.924 82.089 126.511 0 76.359-62.123 138.483-138.483 138.483s-138.482-62.123-138.482-138.482c0-54.587 32.222-104.246 82.089-126.511 6.677-2.982 9.673-10.812 6.691-17.49s-10.813-9.673-17.49-6.692c-59.395 26.521-97.773 85.672-97.773 150.694 0 90.963 74.003 164.965 164.966 164.965s164.966-74.003 164.966-164.965c0-65.024-38.379-124.175-97.774-150.695z" fill-rule="evenodd"/></svg>