<svg xmlns="http://www.w3.org/2000/svg" xml:space="preserve" style="fill-rule:evenodd;clip-rule:evenodd" viewBox="0 0 512 512"><path d="m1944.53 458.49 15.26-.02c.28 0 .51-.23.51-.51l-.01-1.98c0-3.133-2.64-5.706-5.84-5.7h-4.62c-3.2.006-5.82 2.588-5.82 5.72l.01 1.98c0 .28.23.51.51.51m-.98 4.61c-.96 5.78-5.35 9.61-7.69 14.77-1.61 3.533-1.89 7.767-.85 12.7.06.3.24.45.55.45l33.19-.01q.495 0 .6-.48c1.01-4.487.86-8.45-.47-11.89-1.65-4.27-4.84-7.64-6.96-11.72-.61-1.17-.78-2.52-1.13-3.78a.856.856 0 0 0-.83-.63l-15.73.01c-.39 0-.61.193-.68.58m24.94 32.36c0-.203-.17-.37-.37-.37h-31.9c-.2 0-.37.167-.37.37v31.84c0 .203.17.37.37.37h31.9c.2 0 .37-.167.37-.37v-31.84m-21.45 51.27c3.23 1.76 6.54 1.833 9.92.22.33-.153.65-.16.98-.02 5.95 2.607 9.87.92 11.75-5.06.78-2.48.7-5.677-.25-9.59q-.135-.55-.69-.55l-33.26.01q-.525 0-.63.51c-1.08 5.42-1.53 14.9 6.22 15.78q3.225.37 5.28-1.24a.58.58 0 0 1 .68-.06" style="fill-rule:nonzero;stroke:#000;stroke-width:2px" transform="rotate(90 5821.095 -3194.995)scale(4.75498)"/><path d="M1944.53 458.49c-.28 0-.51-.23-.51-.51l-.01-1.98c0-3.132 2.62-5.714 5.82-5.72h4.62c3.2-.006 5.84 2.567 5.84 5.7l.01 1.98c0 .28-.23.51-.51.51zm-8.67 19.38c2.34-5.16 6.73-8.99 7.69-14.77.07-.387.29-.58.68-.58l15.73-.01c.39-.001.73.259.83.63.35 1.26.52 2.61 1.13 3.78 2.12 4.08 5.31 7.45 6.96 11.72 1.33 3.44 1.48 7.403.47 11.89q-.105.48-.6.48l-33.19.01c-.31 0-.49-.15-.55-.45-1.04-4.933-.76-9.167.85-12.7" style="fill-rule:nonzero" transform="rotate(90 5821.095 -3194.995)scale(4.75498)"/><path d="M271.586 344.04H117.411c-.205 0-.371-.142-.371-.38V189.218c0-.237.166-.38.37-.38h154.176c.205 0 .371.143.371.38V343.66c0 .238-.166.38-.37.38"/><path d="M1946.36 546.79q-2.055 1.61-5.28 1.24c-7.75-.88-7.3-10.36-6.22-15.78q.105-.51.63-.51l33.26-.01q.555 0 .69.55c.95 3.913 1.03 7.11.25 9.59-1.88 5.98-5.8 7.667-11.75 5.06-.33-.14-.65-.133-.98.02-3.38 1.613-6.69 1.54-9.92-.22a.58.58 0 0 0-.68.06" style="fill-rule:nonzero" transform="rotate(90 5821.095 -3194.995)scale(4.75498)"/></svg>