<svg xmlns="http://www.w3.org/2000/svg" xml:space="preserve" viewBox="0 0 512.013 512.013"><path d="M256.015 336.006c-33.984 0-65.408 10.816-91.36 28.992l77.792 123.552a16.07 16.07 0 0 0 13.568 7.456c5.504 0 10.624-2.816 13.536-7.456l77.792-123.552c-25.92-18.176-57.344-28.992-91.328-28.992"/><path d="M256.015 240.006c-52.768 0-101.856 16.064-142.624 43.552l34.144 54.208c30.88-21.248 68.224-33.76 108.48-33.76s77.6 12.512 108.48 33.76l34.144-54.208c-40.8-27.488-89.856-43.552-142.624-43.552M511.567 95.238c-.96-4.16-3.584-7.776-7.264-10.016-74.528-45.28-160.416-69.216-248.288-69.216-87.904 0-173.76 23.936-248.32 69.216a16.04 16.04 0 0 0-7.264 9.984 15.88 15.88 0 0 0 2.048 12.192l42.784 67.968c60.576-39.936 132.928-63.36 210.752-63.36s150.176 23.424 210.752 63.36l42.784-67.936c2.272-3.648 3.04-8.032 2.016-12.192"/><path d="M256.015 144.006c-71.552 0-138.112 21.568-193.728 58.4l34.048 54.08c45.76-30.56 100.64-48.48 159.68-48.48s113.92 17.888 159.648 48.48l34.048-54.08c-55.584-36.832-122.144-58.4-193.696-58.4"/></svg>