<?xml version="1.0" encoding="iso-8859-1"?>
<!-- Generator: Adobe Illustrator 19.0.0, SVG Export Plug-In . SVG Version: 6.00 Build 0)  -->
<svg version="1.1" id="Capa_1" xmlns="http://www.w3.org/2000/svg" xmlns:xlink="http://www.w3.org/1999/xlink" x="0px" y="0px"
	 viewBox="0 0 512.013 512.013" style="enable-background:new 0 0 512.013 512.013;" xml:space="preserve">
<g>
	<g>
		<path d="M256.015,336.006c-33.984,0-65.408,10.816-91.36,28.992l77.792,123.552c2.944,4.64,8.064,7.456,13.568,7.456
			c5.504,0,10.624-2.816,13.536-7.456l77.792-123.552C321.423,346.822,289.999,336.006,256.015,336.006z"/>
	</g>
</g>
<g>
	<g>
		<path d="M256.015,240.006c-52.768,0-101.856,16.064-142.624,43.552l34.144,54.208c30.88-21.248,68.224-33.76,108.48-33.76
			c40.256,0,77.6,12.512,108.48,33.76l34.144-54.208C357.839,256.07,308.783,240.006,256.015,240.006z"/>
	</g>
</g>
<g>
	<g>
		<path d="M511.567,95.238c-0.96-4.16-3.584-7.776-7.264-10.016c-74.528-45.28-160.416-69.216-248.288-69.216
			c-87.904,0-173.76,23.936-248.32,69.216c-3.648,2.208-6.272,5.824-7.264,9.984c-0.992,4.16-0.256,8.576,2.048,12.192
			l42.784,67.968c60.576-39.936,132.928-63.36,210.752-63.36s150.176,23.424,210.752,63.36l42.784-67.936
			C511.823,103.782,512.591,99.398,511.567,95.238z"/>
	</g>
</g>
<g>
	<g>
		<path d="M256.015,144.006c-71.552,0-138.112,21.568-193.728,58.4l34.048,54.08c45.76-30.56,100.64-48.48,159.68-48.48
			s113.92,17.888,159.648,48.48l34.048-54.08C394.127,165.574,327.567,144.006,256.015,144.006z"/>
	</g>
</g>
<g>
</g>
<g>
</g>
<g>
</g>
<g>
</g>
<g>
</g>
<g>
</g>
<g>
</g>
<g>
</g>
<g>
</g>
<g>
</g>
<g>
</g>
<g>
</g>
<g>
</g>
<g>
</g>
<g>
</g>
</svg>
