<svg xmlns="http://www.w3.org/2000/svg" width="512" height="512" viewBox="0 0 24 24"><ellipse cx="7" cy="2" rx="7" ry="2"/><path d="M7 8.5c3.866 0 7-.895 7-2V4.233C11.796 5.414 8.004 5.5 7 5.5s-4.796-.086-7-1.267V6.5c0 1.105 3.134 2 7 2m2.5 10.37v2.99c-.77.09-1.62.14-2.5.14-3.87 0-7-.9-7-2v-2.27C2.2 18.91 6 19 7 19c.43 0 1.38-.02 2.5-.13m.11-4.51c-.03.09-.05.2-.07.3l-.04-.03v2.73c-.77.09-1.62.14-2.5.14-3.87 0-7-.9-7-2v-2.27c2.2 1.18 6 1.27 7 1.27.44 0 1.44-.02 2.61-.14M7 10c-1.004 0-4.796-.086-7-1.267V11c0 1.105 3.134 2 7 2s7-.895 7-2V8.733C11.796 9.914 8.004 10 7 10"/><ellipse cx="17.5" cy="15" rx="6.5" ry="2"/><path d="M17.5 20.5c3.59 0 6.5-.895 6.5-2v-1.267c-2.046 1.182-5.568 1.267-6.5 1.267s-4.454-.086-6.5-1.267V18.5c0 1.105 2.91 2 6.5 2m0 1.5c-.932 0-4.454-.086-6.5-1.267V22c0 1.105 2.91 2 6.5 2s6.5-.895 6.5-2v-1.267C21.954 21.914 18.432 22 17.5 22"/></svg>