<svg xmlns="http://www.w3.org/2000/svg" xml:space="preserve" viewBox="0 0 512 512"><path d="M344.768 287.224q-1.944-6.238-5.834-11.021-3.89-4.78-9.482-7.618-5.592-2.835-12.886-2.836-7.619 0-13.21 2.999-5.593 2.999-9.4 7.861-3.81 4.864-5.673 11.103a44.2 44.2 0 0 0-1.864 12.723q0 6.648 1.945 12.885 1.944 6.241 5.754 11.102 3.807 4.863 9.482 7.78 5.672 2.917 12.966 2.917 7.616.001 13.29-3.08 5.671-3.077 9.401-8.023 3.726-4.943 5.592-11.183a44.3 44.3 0 0 0 1.864-12.724q0-6.644-1.945-12.885"/><path d="M384.397 181.081c-6.544-27.372-21.433-52.232-42.789-71.072-25.098-22.141-57.369-34.334-90.87-34.334-75.774 0-137.421 61.647-137.421 137.421q0 1.764.045 3.53a107 107 0 0 0-3.485-.056C49.291 216.57 0 265.861 0 326.447s49.291 109.878 109.878 109.878h274.5c70.371 0 127.622-57.251 127.622-127.622 0-70.366-57.238-127.615-127.603-127.622M246.144 343.385q-5.107 5.026-11.751 8.428A63 63 0 0 1 220.292 357q-7.456 1.783-14.587 1.783-12.482 0-22.935-5.105t-17.991-13.534q-7.538-8.427-11.67-19.125-4.133-10.697-4.133-21.719 0-10.37 3.89-20.665a56.4 56.4 0 0 1 11.346-18.396q7.454-8.103 18.153-13.128 10.698-5.024 24.312-5.025 16.207.001 28.121 6.97 11.913 6.97 17.747 18.153l-20.422 14.263q-1.946-4.536-4.943-7.537-3.001-2.997-6.564-4.862-3.567-1.863-7.293-2.593a38 38 0 0 0-7.294-.729q-7.62.001-13.29 3.08-5.674 3.08-9.4 7.942-3.73 4.863-5.511 11.021a44.6 44.6 0 0 0-1.783 12.48q0 6.808 2.107 13.129 2.104 6.321 6.078 11.184a29.3 29.3 0 0 0 9.563 7.699q5.591 2.837 12.561 2.836 3.564 0 7.375-.891a29.8 29.8 0 0 0 7.294-2.755q3.484-1.862 6.402-4.863 2.916-2.997 4.7-7.375l21.719 12.804q-2.597 6.32-7.7 11.343m123.342-20.908q-4.296 10.537-11.913 18.558-7.62 8.023-18.153 12.885-10.537 4.863-23.016 4.863-12.806 0-23.339-5.025-10.537-5.022-17.991-13.21-7.457-8.183-11.589-18.72-4.133-10.535-4.133-21.719 0-11.343 4.295-21.881 4.293-10.535 11.994-18.558 7.697-8.023 18.234-12.804 10.532-4.78 23.015-4.782 12.803.001 23.34 5.025 10.534 5.025 17.991 13.291 7.454 8.267 11.508 18.801 4.051 10.538 4.052 21.395-.001 11.346-4.295 21.881m4.508 56.388q0-3.573.532-6.386.531-2.813 1.824-5.132 1.292-2.318 3.498-4.295 2.204-1.976 5.55-3.877a747 747 0 0 1 5.968-3.27q2.394-1.291 3.801-2.281 1.406-.987 2.015-1.787.608-.797.608-1.863 0-2.127-1.521-3.421-1.522-1.292-4.334-1.293-3.193.001-5.55 1.559-2.358 1.56-4.562 4.068l-7.755-8.972q1.216-1.367 3.27-2.661 2.052-1.292 4.638-2.319 2.584-1.026 5.664-1.635a33 33 0 0 1 6.424-.608q8.21 0 12.583 3.573 4.371 3.575 4.372 9.656 0 2.51-.798 4.486a13.3 13.3 0 0 1-2.091 3.535 16.4 16.4 0 0 1-2.889 2.737 38 38 0 0 1-3.269 2.167q-1.14.685-2.737 1.597-1.598.913-3.155 1.863a48 48 0 0 0-2.889 1.901q-1.332.952-2.015 1.711h20.68v10.947z"/></svg>