<svg xmlns="http://www.w3.org/2000/svg" xml:space="preserve" viewBox="0 0 512.023 512.023"><path d="m507.343 484.687-480-480c-6.24-6.24-16.384-6.24-22.624 0s-6.24 16.384 0 22.624l49.536 49.536c-15.904 7.328-31.52 15.264-46.56 24.384a16.04 16.04 0 0 0-7.264 9.984 15.88 15.88 0 0 0 2.048 12.192l42.784 67.968c25.536-16.832 53.28-30.528 82.528-40.96l25.472 25.472c-32.512 9.952-63.2 24.128-90.976 42.528l34.048 54.08c32.64-21.824 70.272-36.192 110.464-43.072l28.16 28.16c-44.672 3.68-86.336 18.208-121.6 41.952l34.144 54.208c30.912-21.216 68.256-33.728 108.512-33.728 16.48 0 32.384 2.304 47.616 6.24l181.056 181.056c3.136 3.136 7.232 4.704 11.328 4.704s8.192-1.568 11.328-4.672c6.24-6.272 6.24-16.384 0-22.656m4.224-373.44c-.96-4.16-3.584-7.776-7.264-10.016-74.528-45.28-160.416-69.216-248.288-69.216-46.464 0-92.32 6.88-136.256 19.872l80.256 80.256c18.304-2.688 36.992-4.128 56-4.128 77.824 0 150.176 23.424 210.752 63.36l42.784-67.936c2.272-3.648 3.04-8.031 2.016-12.192m-255.552 48.768q-13.68 0-27.072 1.056l65.888 65.888c44.224 6.016 85.344 21.792 120.864 45.568l34.048-54.112c-55.616-36.832-122.176-58.4-193.728-58.4m81.632 109.76 48.928 48.928 12.064-19.168c-18.688-12.576-39.264-22.432-60.992-29.76"/><path d="M256.015 352.015c-33.984 0-65.408 10.816-91.36 28.992l77.792 123.552a16.07 16.07 0 0 0 13.568 7.456c5.504 0 10.624-2.816 13.536-7.456l77.792-123.552c-25.92-18.176-57.344-28.992-91.328-28.992"/></svg>