<svg xmlns="http://www.w3.org/2000/svg" style="width:100%;height:100%;background-color:#fff" viewBox="0 0 300 300"><svg><svg width="300" height="300" fill="none" transform="matrix(.95 0 0 .95 9 9)"><path d="M5 85h10v10H5zm0 30h10v10H5zm0 20h10v10H5zm0 30h10v10H5zm0 10h10v10H5zm0 10h10v10H5zm0 20h10v10H5zM15 95h10v10H15zm0 60h10v10H15zm0 40h10v10H15zM25 95h10v10H25zm0 100h10v10H25zm0 10h10v10H25zm10-100h10v10H35zm0 20h10v10H35zm0 30h10v10H35zm0 10h10v10H35zm0 10h10v10H35zm0 20h10v10H35zM45 85h10v10H45zm0 10h10v10H45zm0 10h10v10H45zm0 40h10v10H45zm0 10h10v10H45zm0 10h10v10H45zm0 30h10v10H45zM55 85h10v10H55zm0 10h10v10H55zm0 30h10v10H55zm0 10h10v10H55zm0 20h10v10H55zm0 10h10v10H55zm0 20h10v10H55zm0 20h10v10H55zM65 85h10v10H65zm0 20h10v10H65zm0 20h10v10H65zm0 20h10v10H65zm0 20h10v10H65zm0 20h10v10H65zm0 20h10v10H65zm10-90h10v10H75zm0 50h10v10H75zm0 40h10v10H75zM85 15h10v10H85zm0 10h10v10H85zm0 10h10v10H85zm0 10h10v10H85zm0 10h10v10H85zm0 10h10v10H85zm0 10h10v10H85zm0 20h10v10H85zm0 50h10v10H85zm0 10h10v10H85zm0 30h10v10H85zm0 50h10v10H85zm0 10h10v10H85zm0 40h10v10H85zM95 25h10v10H95zm0 20h10v10H95zm0 30h10v10H95zm0 30h10v10H95zm0 20h10v10H95zm0 20h10v10H95zm0 10h10v10H95zm0 10h10v10H95zm0 70h10v10H95zm0 10h10v10H95zm0 10h10v10H95zm0 10h10v10H95zm0 20h10v10H95zm10-270h10v10h-10zm0 40h10v10h-10zm0 10h10v10h-10zm0 30h10v10h-10zm0 10h10v10h-10zm0 20h10v10h-10zm0 10h10v10h-10zm0 10h10v10h-10zm0 10h10v10h-10zm0 30h10v10h-10zm0 20h10v10h-10zm0 10h10v10h-10zm0 10h10v10h-10zm0 20h10v10h-10zm0 10h10v10h-10zm0 10h10v10h-10zM115 5h10v10h-10zm0 10h10v10h-10zm0 10h10v10h-10zm0 10h10v10h-10zm0 40h10v10h-10zm0 20h10v10h-10zm0 10h10v10h-10zm0 30h10v10h-10zm0 80h10v10h-10zm0 10h10v10h-10zm0 10h10v10h-10zm0 10h10v10h-10zm0 10h10v10h-10zm0 20h10v10h-10zm10-260h10v10h-10zm0 10h10v10h-10zm0 10h10v10h-10zm0 10h10v10h-10zm0 20h10v10h-10zm0 30h10v10h-10zm0 60h10v10h-10zm0 10h10v10h-10zm0 10h10v10h-10zm0 40h10v10h-10zm0 20h10v10h-10zm0 20h10v10h-10zm0 10h10v10h-10zm0 10h10v10h-10zm0 10h10v10h-10zM135 5h10v10h-10zm0 20h10v10h-10zm0 10h10v10h-10zm0 20h10v10h-10zm0 40h10v10h-10zm0 40h10v10h-10zm0 10h10v10h-10zm0 10h10v10h-10zm0 10h10v10h-10zm0 10h10v10h-10zm0 20h10v10h-10zm0 10h10v10h-10zm0 10h10v10h-10zm0 10h10v10h-10zm0 20h10v10h-10zm0 10h10v10h-10zm0 20h10v10h-10zm0 10h10v10h-10zm10-260h10v10h-10zm0 30h10v10h-10zm0 10h10v10h-10zm0 10h10v10h-10zm0 10h10v10h-10zm0 10h10v10h-10zm0 10h10v10h-10zm0 10h10v10h-10zm0 10h10v10h-10zm0 30h10v10h-10zm0 20h10v10h-10zm0 30h10v10h-10zm0 10h10v10h-10zm0 20h10v10h-10zm0 40h10v10h-10zm10-260h10v10h-10zm0 40h10v10h-10zm0 20h10v10h-10zm0 10h10v10h-10zm0 10h10v10h-10zm0 30h10v10h-10zm0 10h10v10h-10zm0 10h10v10h-10zm0 30h10v10h-10zm0 10h10v10h-10zm0 20h10v10h-10zm0 20h10v10h-10zm0 20h10v10h-10zm0 10h10v10h-10zm10-220h10v10h-10zm0 20h10v10h-10zm0 10h10v10h-10zm0 10h10v10h-10zm0 20h10v10h-10zm0 10h10v10h-10zm0 10h10v10h-10zm0 20h10v10h-10zm0 30h10v10h-10zm0 30h10v10h-10zm0 40h10v10h-10zm0 20h10v10h-10zm0 10h10v10h-10zm0 20h10v10h-10zM175 5h10v10h-10zm0 10h10v10h-10zm0 10h10v10h-10zm0 20h10v10h-10zm0 10h10v10h-10zm0 40h10v10h-10zm0 20h10v10h-10zm0 10h10v10h-10zm0 20h10v10h-10zm0 10h10v10h-10zm0 30h10v10h-10zm0 10h10v10h-10zm0 10h10v10h-10zm0 10h10v10h-10zm0 30h10v10h-10zm0 10h10v10h-10zm0 20h10v10h-10zm0 10h10v10h-10zM185 5h10v10h-10zm0 30h10v10h-10zm0 30h10v10h-10zm0 10h10v10h-10zm0 10h10v10h-10zm0 20h10v10h-10zm0 10h10v10h-10zm0 20h10v10h-10zm0 20h10v10h-10zm0 10h10v10h-10zm0 10h10v10h-10zm0 10h10v10h-10zm0 40h10v10h-10zm0 30h10v10h-10zm0 10h10v10h-10zM195 5h10v10h-10zm0 20h10v10h-10zm0 10h10v10h-10zm0 20h10v10h-10zm0 20h10v10h-10zm0 30h10v10h-10zm0 10h10v10h-10zm0 10h10v10h-10zm0 10h10v10h-10zm0 20h10v10h-10zm0 30h10v10h-10zm0 20h10v10h-10zm0 20h10v10h-10zm0 20h10v10h-10zm0 30h10v10h-10zm0 10h10v10h-10zM205 5h10v10h-10zm0 30h10v10h-10zm0 10h10v10h-10zm0 10h10v10h-10zm0 10h10v10h-10zm0 10h10v10h-10zm0 10h10v10h-10zm0 10h10v10h-10zm0 10h10v10h-10zm0 20h10v10h-10zm0 20h10v10h-10zm0 10h10v10h-10zm0 20h10v10h-10zm0 10h10v10h-10zm0 10h10v10h-10zm0 10h10v10h-10zm0 10h10v10h-10zm0 10h10v10h-10zm0 10h10v10h-10zm0 10h10v10h-10zm0 10h10v10h-10zm0 10h10v10h-10zm0 10h10v10h-10zm0 10h10v10h-10zm10-200h10v10h-10zm0 10h10v10h-10zm0 10h10v10h-10zm0 20h10v10h-10zm0 10h10v10h-10zm0 30h10v10h-10zm0 20h10v10h-10zm0 20h10v10h-10zm0 40h10v10h-10zm0 10h10v10h-10zm0 20h10v10h-10zm0 10h10v10h-10zm10-200h10v10h-10zm0 10h10v10h-10zm0 40h10v10h-10zm0 10h10v10h-10zm0 10h10v10h-10zm0 10h10v10h-10zm0 20h10v10h-10zm0 10h10v10h-10zm0 10h10v10h-10zm0 20h10v10h-10zm0 20h10v10h-10zm10-160h10v10h-10zm0 10h10v10h-10zm0 100h10v10h-10zm0 10h10v10h-10zm0 40h10v10h-10zm0 10h10v10h-10zm0 30h10v10h-10zm10-200h10v10h-10zm0 10h10v10h-10zm0 20h10v10h-10zm0 10h10v10h-10zm0 10h10v10h-10zm0 10h10v10h-10zm0 10h10v10h-10zm0 30h10v10h-10zm0 20h10v10h-10zm0 10h10v10h-10zm0 10h10v10h-10zm0 10h10v10h-10zm0 10h10v10h-10zm0 10h10v10h-10zm0 10h10v10h-10zm0 20h10v10h-10zm10-200h10v10h-10zm0 10h10v10h-10zm0 10h10v10h-10zm0 10h10v10h-10zm0 10h10v10h-10zm0 30h10v10h-10zm0 10h10v10h-10zm0 10h10v10h-10zm0 20h10v10h-10zm0 10h10v10h-10zm0 10h10v10h-10zm0 20h10v10h-10zm0 30h10v10h-10zm10-180h10v10h-10zm0 50h10v10h-10zm0 10h10v10h-10zm0 30h10v10h-10zm0 20h10v10h-10zm0 10h10v10h-10zm0 10h10v10h-10zm0 10h10v10h-10zm0 10h10v10h-10zm0 10h10v10h-10zm0 10h10v10h-10zm0 20h10v10h-10zm10-190h10v10h-10zm0 10h10v10h-10zm0 10h10v10h-10zm0 10h10v10h-10zm0 30h10v10h-10zm0 20h10v10h-10zm0 20h10v10h-10zm0 20h10v10h-10zm0 40h10v10h-10zm0 30h10v10h-10zm10-170h10v10h-10zm0 40h10v10h-10zm0 30h10v10h-10zm0 20h10v10h-10zm0 20h10v10h-10zm0 10h10v10h-10zm0 20h10v10h-10zm0 10h10v10h-10zm0 10h10v10h-10zM5 5h10v10H5zm0 10h10v10H5zm0 10h10v10H5zm0 10h10v10H5zm0 10h10v10H5zm0 10h10v10H5zm0 10h10v10H5zM15 5h10v10H15zm0 60h10v10H15zM25 5h10v10H25zm0 60h10v10H25zM35 5h10v10H35zm0 60h10v10H35zM45 5h10v10H45zm0 60h10v10H45zM55 5h10v10H55zm0 60h10v10H55zM65 5h10v10H65zm0 10h10v10H65zm0 10h10v10H65zm0 10h10v10H65zm0 10h10v10H65zm0 10h10v10H65zm0 10h10v10H65zM25 25h10v10H25zm0 10h10v10H25zm0 10h10v10H25zm10-20h10v10H35zm0 10h10v10H35zm0 10h10v10H35zm10-20h10v10H45zm0 10h10v10H45zm0 10h10v10H45zM225 5h10v10h-10zm0 10h10v10h-10zm0 10h10v10h-10zm0 10h10v10h-10zm0 10h10v10h-10zm0 10h10v10h-10zm0 10h10v10h-10zm10-60h10v10h-10zm0 60h10v10h-10zm10-60h10v10h-10zm0 60h10v10h-10zm10-60h10v10h-10zm0 60h10v10h-10zm10-60h10v10h-10zm0 60h10v10h-10zm10-60h10v10h-10zm0 60h10v10h-10zm10-60h10v10h-10zm0 10h10v10h-10zm0 10h10v10h-10zm0 10h10v10h-10zm0 10h10v10h-10zm0 10h10v10h-10zm0 10h10v10h-10zm-40-40h10v10h-10zm0 10h10v10h-10zm0 10h10v10h-10zm10-20h10v10h-10zm0 10h10v10h-10zm0 10h10v10h-10zm10-20h10v10h-10zm0 10h10v10h-10zm0 10h10v10h-10zM5 225h10v10H5zm0 10h10v10H5zm0 10h10v10H5zm0 10h10v10H5zm0 10h10v10H5zm0 10h10v10H5zm0 10h10v10H5zm10-60h10v10H15zm0 60h10v10H15zm10-60h10v10H25zm0 60h10v10H25zm10-60h10v10H35zm0 60h10v10H35zm10-60h10v10H45zm0 60h10v10H45zm10-60h10v10H55zm0 60h10v10H55zm10-60h10v10H65zm0 10h10v10H65zm0 10h10v10H65zm0 10h10v10H65zm0 10h10v10H65zm0 10h10v10H65zm0 10h10v10H65zm-40-40h10v10H25zm0 10h10v10H25zm0 10h10v10H25zm10-20h10v10H35zm0 10h10v10H35zm0 10h10v10H35zm10-20h10v10H45zm0 10h10v10H45zm0 10h10v10H45z" style="fill:#000"/></svg></svg></svg>