<svg xmlns="http://www.w3.org/2000/svg" xml:space="preserve" style="fill-rule:evenodd;clip-rule:evenodd;stroke-linejoin:round;stroke-miterlimit:2" viewBox="0 0 512 512"><path d="M1260.28 322.32c-1.17 3.187-1.83 6.39-2 9.61-.05.96-.55 1.447-1.52 1.46l-.44.01c-1.29.027-1.92-.607-1.88-1.9.41-13.23 9.62-25.92 20.3-32.37.21-.132.39-.31.52-.52q1.635-2.71-1.71-2.35c-.22.026-.44.105-.64.23-5.3 3.373-10.07 7.907-14.32 13.6-.47.62-1.05 1.023-1.76 1.21l-.06.015c-.88.201-1.76-.36-1.97-1.242 0-.021-.01-.042-.01-.063-1.51-7.91 4.3-14.78 10.57-18.41 9.01-5.227 18.73-7.577 29.15-7.05.47.024.89.31 1.09.74q.6 1.3-.21 2.35c-5.17 6.74-5.69 16.69-7.28 24.76-1.37 6.933-5.22 11.207-11.53 12.82-5.9 1.513-11.09.477-15.56-3.11-.34-.273-.59-.203-.74.21" style="fill-rule:nonzero" transform="translate(-6950.76 -1591.09)scale(5.6065)"/><path d="M1314.06 305.76c2.5 10.74-.69 20.25-8.28 27.86-.95.96-1.6 2.407-1.94 4.34-.81 4.59-3.47 14.17-9.32 14.23-4.93.047-10.02.053-15.26.02q-4.38-.03-6.45-4.02-2.955-5.69-4.02-12.25a2.05 2.05 0 0 0-.32-.79l-2.26-3.24a1.6 1.6 0 0 1-.28-.892c0-.826.66-1.516 1.48-1.558 3.31-.16 6.71.24 9.91-.72 15.63-4.67 14.22-18.43 17.21-31.24.89-3.79 4.02-11.63 9.29-7.4 5.4 4.333 8.81 9.553 10.24 15.66" style="fill-rule:nonzero" transform="translate(-6950.76 -1591.09)scale(5.6065)"/><path d="m315.08 406.413.03 17.38a1.46 1.46 0 0 1-1.454 1.46l-103.16.18a1.46 1.46 0 0 1-1.46-1.454l-.03-17.38a1.46 1.46 0 0 1 1.455-1.46l103.16-.18a1.46 1.46 0 0 1 1.46 1.454m-.378 42.243v17.626a1.39 1.39 0 0 1-1.401 1.39H210.927a1.39 1.39 0 0 1-1.402-1.39v-17.626c0-.768.617-1.39 1.402-1.39h102.375a1.39 1.39 0 0 1 1.401 1.39m-20.493 43.062-.054 15.71a1.34 1.34 0 0 1-1.345 1.334l-60.785-.212a1.34 1.34 0 0 1-1.335-1.344l.055-15.71a1.34 1.34 0 0 1 1.344-1.335l60.786.212a1.34 1.34 0 0 1 1.335 1.345"/></svg>