<svg xmlns="http://www.w3.org/2000/svg" xml:space="preserve" style="fill-rule:evenodd;clip-rule:evenodd;stroke-linejoin:round;stroke-miterlimit:2" viewBox="0 0 512 512"><path d="M936.29 467.41q-.69-.69-1.35.02c-5.97 6.45-11.19-2.18-13.17-7.11-.45-1.11-1.43-2.38-2.55-2.82q-4.87-1.91-9.11-6.14a4294 4294 0 0 1-19.89-19.9q-3.54-3.55-4.11-6.86-1.1-6.3 2.8-10.71c2.25-2.54 4.78-4.96 8.2-5.74q7.11-1.61 12.46 3.78 9.76 9.84 20.43 20.58 3.78 3.79 5.8 8.87c.38.95 1.64 1.8 2.56 2.18 5.07 2.06 13.54 7.15 7.11 13.38a.79.79 0 0 0-.01 1.13l22.25 22.29a1.57 1.57 0 0 0 1.21.45c3.36-.26 5.78.35 7.38 3.54q3.04 6.06 6.49 12.91c1.42 2.82-1.42 5.15-3.29 6.84-1.44 1.3-3.02 1.13-4.61.33q-7.23-3.65-13.19-6.64c-2.94-1.47-2.66-4.36-2.72-7.12a1.36 1.36 0 0 0-.41-.97zm27-43.41q1.25 4.86 5.01 7.3c.404.262.923.27 1.33.02a501 501 0 0 1 9.73-5.84q1.81-1.06 3.44.17.41.31.45.82.4 6.17-1.72 10.31-6.84 13.35-22.76 11.36a.99.99 0 0 0-.92.35q-1.26 1.41-2.68 2.73c-1.55 1.45-3.08.66-3.78-.97-2.13-4.96-6.48-7.81-11.43-10.11a2.113 2.113 0 0 1-.74-3.26q1.97-2.39 2.89-4.93c.95-2.64.29-5.42 1.1-8.08 2.37-7.81 9.3-15 17.8-16.03 5.02-.6 11.24 1.04 14.99 4.76.232.225.374.531.4.86q.14 1.68-1.26 2.55a481 481 0 0 1-11.39 6.89q-.65.38-.46 1.1" style="fill-rule:nonzero" transform="translate(-4159.46 -1894.99)scale(4.72143)"/><path d="M908.12 489.25q-1.35-4.84-4.73-7.32a1.77 1.77 0 0 0-1.96-.09q-6.02 3.64-11.81 7.06c-1.81 1.06-3.56-.29-3.7-2.15q-.68-9.3 5.47-15.88c4.33-4.62 9.69-6.28 15.95-6.46 2.75-.09 4.99-1.25 7.07-2.91q2.86-2.29 4.27 1.07 3.37 7.99 10.39 11.12.082.037.162.083a1.823 1.823 0 0 1 .578 2.627c-1.95 2.71-3.45 5.28-3.29 8.79.37 8.07-7.04 15.98-13.61 18.73q-8.23 3.44-17.38-1.58c-1.72-.95-2.86-3.28-.7-4.6q6.19-3.78 13.05-7.87a.545.545 0 0 0 .24-.62" style="fill-rule:nonzero" transform="translate(-4159.46 -1894.99)scale(4.72143)"/></svg>