<svg xmlns="http://www.w3.org/2000/svg" xml:space="preserve" style="fill-rule:evenodd;clip-rule:evenodd" viewBox="0 0 512 512"><path d="M1092.93 78.51c.51.082.96.396 1.21.85l3.79 6.76c.48.852.39 1.918-.24 2.67-.87 1.05-1.82 1.93-2.32 3.23-2.59 6.64 4.82 10.4 10.15 12.79 2.72 1.21 5.86 1.1 8.06-.99 1.29-1.23 1.78-3.06 2.36-4.68a2.27 2.27 0 0 1 2.13-1.5l7.84.02c.91 0 1.54.427 1.87 1.28.33.84.63 1.677.92 2.51 1.18 3.42 4.81 4.8 8.12 3.81 4.64-1.38 15.79-7.06 11.24-14.01-.6-.907-1.28-1.753-2.03-2.54a2.085 2.085 0 0 1-.3-2.51l4.04-6.9a2.02 2.02 0 0 1 2.12-.95c.91.18 1.82.32 2.75.42 8.32.94 7.92-9.16 7.51-14.31q-.735-9.2-9.9-7.08c-1.35.31-2.36-.56-2.96-1.66-1.19-2.173-2.4-4.257-3.61-6.25a1.8 1.8 0 0 1 .09-2q.93-1.23 1.86-2.37c2.16-2.64 1.73-6.44-.63-8.71-4.3-4.13-16.44-11.29-18.87-.26a2.43 2.43 0 0 1-2.14 1.89c-2.28.207-4.76.25-7.43.13-1.53-.073-2.48-.797-2.87-2.17-1.9-6.76-7.3-6.8-12.44-4.01-4.43 2.4-9.94 5.4-8.03 11.47.47 1.49 1.71 2.54 2.61 3.8.51.714.55 1.671.09 2.43q-1.8 3.02-3.27 5.85c-.7 1.35-1.6 2.16-3.11 1.85-6.19-1.293-9.51 1.11-9.94 7.21-.37 5.07-.84 12.79 5.46 14.09 2.02.42 3.86-.49 5.87-.16" style="fill:none;fill-rule:nonzero;stroke:#000;stroke-width:2px" transform="translate(-6357.79 -137.835)scale(5.89655)"/><path d="M1137.52 67.87c0-8.563-7.05-15.61-15.61-15.61s-15.61 7.047-15.61 15.61 7.05 15.61 15.61 15.61 15.61-7.047 15.61-15.61" style="fill:none;fill-rule:nonzero;stroke:#000;stroke-width:2px" transform="translate(-6357.79 -137.835)scale(5.89655)"/><path d="M1092.93 78.51c-2.01-.33-3.85.58-5.87.16-6.3-1.3-5.83-9.02-5.46-14.09.43-6.1 3.75-8.503 9.94-7.21 1.51.31 2.41-.5 3.11-1.85q1.47-2.83 3.27-5.85c.46-.759.42-1.716-.09-2.43-.9-1.26-2.14-2.31-2.61-3.8-1.91-6.07 3.6-9.07 8.03-11.47 5.14-2.79 10.54-2.75 12.44 4.01.39 1.373 1.34 2.097 2.87 2.17 2.67.12 5.15.077 7.43-.13a2.43 2.43 0 0 0 2.14-1.89c2.43-11.03 14.57-3.87 18.87.26 2.36 2.27 2.79 6.07.63 8.71q-.93 1.14-1.86 2.37a1.8 1.8 0 0 0-.09 2c1.21 1.993 2.42 4.077 3.61 6.25.6 1.1 1.61 1.97 2.96 1.66q9.165-2.12 9.9 7.08c.41 5.15.81 15.25-7.51 14.31-.93-.1-1.84-.24-2.75-.42-.84-.162-1.69.22-2.12.95l-4.04 6.9c-.48.806-.35 1.839.3 2.51.75.787 1.43 1.633 2.03 2.54 4.55 6.95-6.6 12.63-11.24 14.01-3.31.99-6.94-.39-8.12-3.81a68 68 0 0 0-.92-2.51c-.33-.853-.96-1.28-1.87-1.28l-7.84-.02a2.27 2.27 0 0 0-2.13 1.5c-.58 1.62-1.07 3.45-2.36 4.68-2.2 2.09-5.34 2.2-8.06.99-5.33-2.39-12.74-6.15-10.15-12.79.5-1.3 1.45-2.18 2.32-3.23.63-.752.72-1.818.24-2.67l-3.79-6.76c-.25-.454-.7-.768-1.21-.85Zm44.59-10.64c0-8.563-7.05-15.61-15.61-15.61s-15.61 7.047-15.61 15.61 7.05 15.61 15.61 15.61 15.61-7.047 15.61-15.61Z" style="fill-rule:nonzero;stroke:#000;stroke-width:.17px;stroke-linejoin:round;stroke-miterlimit:2" transform="translate(-6357.79 -137.835)scale(5.89655)"/></svg>