<svg xmlns="http://www.w3.org/2000/svg" width="512" height="512" viewBox="0 0 24 24"><path d="m18.48 8.7-1.46 1.46c.62 1.14.98 2.45.98 3.84 0 4.41-3.59 8-8 8s-8-3.59-8-8 3.59-8 8-8c1.39 0 2.7.36 3.84.98l1.46-1.46A9.95 9.95 0 0 0 10 4C4.49 4 0 8.49 0 14s4.49 10 10 10 10-4.49 10-10c0-1.95-.56-3.77-1.52-5.3"/><path d="m15.9 11.28-1.56 1.56c.11.37.16.76.16 1.16 0 2.48-2.02 4.5-4.5 4.5S5.5 16.48 5.5 14 7.52 9.5 10 9.5c.4 0 .79.05 1.16.16l1.56-1.56c-.83-.39-1.75-.6-2.72-.6-3.58 0-6.5 2.92-6.5 6.5s2.92 6.5 6.5 6.5 6.5-2.92 6.5-6.5c0-.97-.21-1.89-.6-2.72"/><path d="M10 17c-1.654 0-3-1.346-3-3s1.346-3 3-3 3 1.346 3 3-1.346 3-3 3m0-4c-.551 0-1 .449-1 1s.449 1 1 1 1-.449 1-1-.449-1-1-1"/><path d="M10 14.75a.75.75 0 0 1-.53-1.281l7.5-7.5a.75.75 0 1 1 1.061 1.061l-7.5 7.5a.75.75 0 0 1-.531.22"/><path d="M20.25 7h-2.5a.75.75 0 0 1-.75-.75v-2.5c0-.199.079-.39.22-.53l3-3a.751.751 0 0 1 1.28.53V2.5h1.75a.75.75 0 0 1 .53 1.28l-3 3a.75.75 0 0 1-.53.22"/></svg>