<svg id="bold" enable-background="new 0 0 24 24" height="512" viewBox="0 0 24 24" width="512" xmlns="http://www.w3.org/2000/svg"><path d="m18.48 8.7-1.46 1.46c.62 1.14.98 2.45.98 3.84 0 4.41-3.59 8-8 8s-8-3.59-8-8 3.59-8 8-8c1.39 0 2.7.36 3.84.98l1.46-1.46c-1.53-.96-3.35-1.52-5.3-1.52-5.51 0-10 4.49-10 10s4.49 10 10 10 10-4.49 10-10c0-1.95-.56-3.77-1.52-5.3z"/><path d="m15.9 11.28-1.56 1.56c.11.37.16.76.16 1.16 0 2.48-2.02 4.5-4.5 4.5s-4.5-2.02-4.5-4.5 2.02-4.5 4.5-4.5c.4 0 .79.05 1.16.16l1.56-1.56c-.83-.39-1.75-.6-2.72-.6-3.58 0-6.5 2.92-6.5 6.5s2.92 6.5 6.5 6.5 6.5-2.92 6.5-6.5c0-.97-.21-1.89-.6-2.72z"/><path d="m10 17c-1.654 0-3-1.346-3-3s1.346-3 3-3 3 1.346 3 3-1.346 3-3 3zm0-4c-.551 0-1 .449-1 1s.449 1 1 1 1-.449 1-1-.449-1-1-1z"/><path d="m10 14.75c-.192 0-.384-.073-.53-.22-.293-.293-.293-.768 0-1.061l7.5-7.5c.293-.293.768-.293 1.061 0s.293.768 0 1.061l-7.5 7.5c-.147.147-.339.22-.531.22z"/><path d="m20.25 7h-2.5c-.414 0-.75-.336-.75-.75v-2.5c0-.199.079-.39.22-.53l3-3c.215-.215.538-.278.817-.163.28.116.463.39.463.693v1.75h1.75c.303 0 .577.183.693.463s.052.603-.163.817l-3 3c-.14.141-.331.22-.53.22z"/></svg>